# xmcd CD database file
#
# Track frame offsets:
#	150
#	9981
#	27896
#	43172
#	66583
#	81093
#	100948
#	115330
#	133330
#	150890
#	166128
#	181099
#	199609
#
# Disc length: 2905 seconds
#
# Revision: 0
# Processed by: cddbd v1.4PL0 Copyright (c) Steve Scherf et al.
# Submitted via: CDex 1.51
#
DISCID=a10b570d
DTITLE=Jive At Five - Swingin' Standard Time
DYEAR=1995
DGENRE=Jazz
TTITLE0=Blue Skies (In Walked Bud)
TTITLE1=Exactly Like You
TTITLE2=Blue Light Boogie
TTITLE3=Why Try To Change Me Now
TTITLE4=Doodlin'
TTITLE5=Easy Easy Baby
TTITLE6=Tardbird Suite
TTITLE7=Little Trip To Heaven
TTITLE8=Like Young
TTITLE9=Tuxedo Junction
TTITLE10=My Baby Just Cares For Me
TTITLE11=Since I Fell For You
TTITLE12=Smack Dab In The Middle
EXTD=YEAR: 1995
EXTT0=
EXTT1=
EXTT2=
EXTT3=
EXTT4=
EXTT5=
EXTT6=
EXTT7=
EXTT8=
EXTT9=
EXTT10=
EXTT11=
EXTT12=
PLAYORDER=
